/* XPM */
static char *exit_minus[] = {
/* columns rows colors chars-per-pixel */
"32 21 193 2 ",
"   c #EF3D3F",
".  c #ED4D3D",
"X  c #F14F36",
"o  c #F36E38",
"O  c #E47F3D",
"+  c #F47D34",
"@  c #EB3B60",
"#  c #EE354D",
"$  c #EF4D59",
"%  c #EE565E",
"&  c #F16447",
"*  c #EB6444",
"=  c #EF456F",
"-  c #E2626B",
";  c #F16D63",
":  c #F1766E",
">  c #EF6F79",
",  c #F07572",
"<  c #F28636",
"1  c #F59937",
"2  c #FCB62E",
"3  c #FAA934",
"4  c #F8A333",
"5  c #F1BD39",
"6  c #FBB339",
"7  c #BCCD3F",
"8  c #C2CB3F",
"9  c #D9CA37",
"0  c #D5CB38",
"q  c #D7CA37",
"w  c #FEC32C",
"e  c #E9C637",
"r  c #F7C533",
"t  c #B99372",
"y  c #CF8056",
"u  c #ED8E41",
"i  c #F28B5F",
"p  c #F4934A",
"a  c #DDA547",
"s  c #F6A359",
"d  c #F6A150",
"f  c #E4A747",
"g  c #CC8E6E",
"h  c #D99B6E",
"j  c #F38F6C",
"k  c #F4887F",
"l  c #EF9766",
"z  c #D8AB69",
"x  c #F3AC60",
"c  c #F3A47A",
"v  c #F4B976",
"b  c #E5B164",
"n  c #ABCE4A",
"m  c #B7CD42",
"M  c #B7CF54",
"N  c #90C664",
"B  c #8ACA75",
"V  c #8EC865",
"C  c #DDD05E",
"Z  c #D9CD46",
"A  c #E8CC49",
"S  c #F6C249",
"D  c #F7C647",
"F  c #ECC25D",
"G  c #F9C15E",
"H  c #CECE63",
"J  c #CED262",
"K  c #CBCF70",
"L  c #C4D575",
"P  c #E8D163",
"I  c #E8CD71",
"U  c #F6C76A",
"Y  c #388FB1",
"T  c #3C9CBA",
"R  c #10B6BF",
"E  c #30BBA1",
"W  c #56AD9E",
"Q  c #4F8FB5",
"!  c #5CA3B5",
"~  c #62B2BB",
"^  c #61ABB9",
"/  c #61C393",
"(  c #7BCA90",
")  c #45C0B8",
"_  c #70CBB1",
"`  c #1D97C5",
"'  c #2397C0",
"]  c #1CABCD",
"[  c #0AB2CC",
"{  c #30B0D9",
"}  c #4E9BCC",
"|  c #6D97C4",
" . c #5BA4C1",
".. c #4CB1C4",
"X. c #41A2D4",
"o. c #51B6DB",
"O. c #79A7CE",
"+. c #7BABD2",
"@. c #60B5D8",
"#. c #7BB5D8",
"$. c #70C6DF",
"%. c #67C9C8",
"&. c #ACA69F",
"*. c #9FBDA0",
"=. c #F2958B",
"-. c #F09295",
";. c #ED8585",
":. c #CBA19A",
">. c #F3AC8D",
",. c #F4BC8E",
"<. c #F4B986",
"1. c #EFA19B",
"2. c #F3A797",
"3. c #F3B599",
"4. c #F19FA6",
"5. c #CBAAA3",
"6. c #F1ADA9",
"7. c #F1A6A9",
"8. c #F3B9AA",
"9. c #F1AFB9",
"0. c #EFB4B4",
"q. c #F1B2BC",
"w. c #F1B9B6",
"e. c #87CB85",
"r. c #B3D58B",
"t. c #93D1A3",
"y. c #9CD6B6",
"u. c #AFD9A6",
"i. c #ACDAB8",
"p. c #B6DEBE",
"a. c #D1D983",
"s. c #CAD090",
"d. c #F7C58B",
"f. c #F5C194",
"g. c #F6D49F",
"h. c #D1C0A0",
"j. c #F4C2A1",
"k. c #F4C9AC",
"l. c #F4C9BA",
"z. c #F6D9BE",
"x. c #CAE1B8",
"c. c #8AADCF",
"v. c #8AADD0",
"b. c #85BEDE",
"n. c #9BBCD9",
"m. c #99B6D4",
"M. c #B6BEC1",
"N. c #A8BDD7",
"B. c #F1B5C0",
"V. c #F1BAC3",
"C. c #9DDADB",
"Z. c #88D2D3",
"A. c #A2D9C5",
"S. c #ADC6DD",
"D. c #AAC7DE",
"F. c #B4C7DD",
"G. c #B4C9DE",
"H. c #BCCBDE",
"J. c #AFDDD4",
"K. c #B7CBC7",
"L. c #89CBE3",
"P. c #8FD0E4",
"I. c #9DD3E6",
"U. c #91D1E0",
"Y. c #94CAE3",
"T. c #A5CBE2",
"R. c #BDCEE1",
"E. c #A9D9E6",
"W. c #BED4E4",
"Q. c #B8DBE8",
"!. c #D7D0C4",
"~. c #D0D4D8",
"^. c #F2C7C4",
"/. c #F1D3CC",
"(. c #F2CDD3",
"). c #F3D3DA",
"_. c #EDD4DA",
"`. c #C1E3D6",
"'. c #C1D2E3",
"]. c #C4DEEA",
"[. c #CDD7E5",
"{. c #D5DEE8",
"}. c #D6DDE7",
"|. c #C4E1EC",
" X c #CBE4EC",
".X c #D7E5E8",
"XX c #E4E9EE",
"oX c #E8EAEC",
"OX c #F2EBEC",
"+X c #F2E5E4",
"@X c #EDEEF0",
"#X c #E3EDF0",
"$X c #F2F2F2",
/* pixels */
"$X$X$X$X$X$X$X$X$X$X$X$X$X$X$X$X$XOXOXOX$X$X$X$X$X$X$X$X$X$X$X$X",
"$X$X$X$X$X$X$X$X$X$X$X$X$X$X$X$X$X$X+X(.).$X$X$X$X$X$X$X$X$X$X$X",
"$X$X$X$X$X$X$X$X$X$XXXn.O.| Q | N.oX+X/.0.q.$X$X$X$X$X$X$X$X$X$X",
"$X$X$X$X$X$X$X$X$Xm.} ..~ ^ ! Q Y T K.z.l.6.q.$X$XOX$X$X$X$X$X$X",
"$X$X$X$X$X$X$X@XO.@.! +.b.U.L.$.@.X.' *.k.8.4._.$X).$X$X$X$X$X$X",
"$X$X$X$X$X$X$Xv.Y.c.#.I.J.u.r.r.t.%.o.` s.j.0.7.$X^.+X$X$X$X$X$X",
"$X$X$X$X$X$XR.T.N.+.U.i.J e 5 5 A L _ { W g.3.0.).^.).$X$X$X$X$X",
"$X$X$X$X$X$XF..XO.L.y.C 4 < 1 1 3 r L ) ] P k.6.(.^.V.$X$X$X$X$X",
"$X$X$X$X$X{.XXF.b.Z.a.1 < 1 3 6 3 2 A e.[ K f.0.l.l.9.$X$X$X$X$X",
"$X$X$X$X$XXX$Xn.Y.i.F + p 5 w w w r A B R H ,.l.8.w.9.$X$X$X$X$X",
"$X$X$X$X$X$X$XN.P.x.u o d w 9 e w w Z e.E P <.6.3.3.B.$X$X$X$X$X",
"$X$X$X$X$X$X$Xn.E.x.< o x r q q e 9 M / N U 8.6.c >.(.$X$X$X$X$X",
"$X$X$X$X$X$X$XT.I.p.u & s d 9 8 m n B N A d.3.4.x -.OX$X$X$X$X$X",
"$X$X$X$X$X$X$XR.E.A.b X i U D 9 7 m 8 A d.3.1.c l 9.$X$X$X$X$X$X",
"$X$X$X$X$X$X$X{.T.C.s.* & l v x S S x d.3.-.=.f ;.OX$X$X$X$X$X$X",
"$X$X$X$X$X$X$X@XT.E.A.z $ & j >.<.,.>.>.=.;.f g _.$X$X$X$X$X$X$X",
"$X$X$X$X$X$X$X$X[.T.E.p.h $ $ : ; : ;.> i a t ~.$X$X$X$X$X$X$X$X",
"$X$X$X$X$X$X$X$X$XH.Q.Q.`.5.- @ = % & O y &.Q.oX$X$X$X$X$X$X$X$X",
"$X$X$X$X$X$X$X$X$X@X'.Q.]. X.X!.5.:.5.M.E.Q. XXX$X$X$X$X$X$X$X$X",
"$X$X$X$X$X$X$X$X$X$X$X~.W.[. X]. XQ.Q.Q.Q.'.}.@X$X$X$X$X$X$X$X$X",
"$X$X$X$X$X$X$X$X$X$X$X$X@X.XW.R.R.D.F.F.[.XX$X$X$X$X$X$X$X$X$X$X"
};
