/* XPM */
static char *exit_mibus[] = {
/* columns rows colors chars-per-pixel */
"32 32 211 2 ",
"   c #F05A3C",
".  c #F3743A",
"X  c #ED545A",
"o  c #F05550",
"O  c #ED6042",
"+  c #F16748",
"@  c #EF6950",
"#  c #F17550",
"$  c #E57B4C",
"%  c #ED4868",
"&  c #EE5A60",
"*  c #DB7D7C",
"=  c #E4636B",
"-  c #F16666",
";  c #E77667",
":  c #EE7A74",
">  c #EF8A3E",
",  c #F38A38",
"<  c #F59737",
"1  c #EEAE34",
"2  c #F7A936",
"3  c #FBBA32",
"4  c #F7B736",
"5  c #BFCC3F",
"6  c #C8CB3D",
"7  c #D9CA37",
"8  c #D8C939",
"9  c #FCC32D",
"0  c #E5C737",
"q  c #E4C838",
"w  c #F4C433",
"e  c #F7C233",
"r  c #DF9F55",
"t  c #CF8F5D",
"y  c #ED8D43",
"u  c #EB9F4E",
"i  c #F59849",
"p  c #F18A5D",
"a  c #E69857",
"s  c #EF915A",
"d  c #D1A35C",
"f  c #E7A358",
"g  c #F5A757",
"h  c #EBB34B",
"j  c #D19670",
"k  c #DC8876",
"l  c #F1956C",
"z  c #EE8E7A",
"x  c #F28E75",
"c  c #F0977B",
"v  c #D8A36B",
"b  c #F3AB6C",
"n  c #F2A567",
"m  c #E8BE60",
"M  c #F5BF65",
"N  c #F3A77A",
"B  c #E2AC66",
"V  c #B8CD43",
"C  c #AFCC53",
"Z  c #96C968",
"A  c #88CA7C",
"S  c #82C573",
"D  c #C6CC48",
"F  c #DEC649",
"G  c #D9CE57",
"H  c #C9CA54",
"J  c #E2C74A",
"K  c #E6CA57",
"L  c #F7C05B",
"P  c #F3C648",
"I  c #D8CD66",
"U  c #C6CD73",
"Y  c #D7C77B",
"T  c #C0D274",
"R  c #C7CC6B",
"E  c #EAC96C",
"W  c #F4C678",
"Q  c #DB7A89",
"!  c #3F95B7",
"~  c #1CB6BF",
"^  c #2BBAAD",
"/  c #77B79D",
"(  c #4A99B8",
")  c #5793BA",
"_  c #619CBC",
"`  c #46AEB0",
"'  c #59A2BC",
"]  c #69ADAF",
"[  c #64ABBD",
"{  c #59C08B",
"}  c #74C78C",
"|  c #4EC0B3",
" . c #70C9BF",
".. c #67C5BC",
"X. c #2D9FC4",
"o. c #1FB3C5",
"O. c #39A1CC",
"+. c #30ABD1",
"@. c #33B3C7",
"#. c #559FCA",
"$. c #54AFC6",
"%. c #4FB2D1",
"&. c #50ADCC",
"*. c #6BABC7",
"=. c #72A4C3",
"-. c #79B7D6",
";. c #6BB5CF",
":. c #78C2D0",
">. c #B7A692",
",. c #B9B1A5",
"<. c #D09F9B",
"1. c #F1978B",
"2. c #F19891",
"3. c #EA8F8E",
"4. c #CEA686",
"5. c #F3AB89",
"6. c #F4BA84",
"7. c #F4BD8D",
"8. c #F2A197",
"9. c #F3AD92",
"0. c #F0A398",
"q. c #F3B39C",
"w. c #F3B897",
"e. c #F09EA0",
"r. c #C8B7B3",
"t. c #D0B0AD",
"y. c #F1AAAA",
"u. c #F2B6A2",
"i. c #F2B3AB",
"p. c #F3BAA7",
"a. c #F0B3B2",
"s. c #F1BCB5",
"d. c #F1B5BD",
"f. c #F0BBBD",
"g. c #8FCE99",
"h. c #9AD09C",
"j. c #B7D286",
"k. c #BCCC99",
"l. c #B9D799",
"z. c #AAD28C",
"x. c #A8D6B7",
"c. c #B9D9B9",
"v. c #B3C3A8",
"b. c #C1D691",
"n. c #C4CF8E",
"m. c #F5C389",
"M. c #F2C296",
"N. c #E8D08B",
"B. c #C7DBB4",
"V. c #E7CBA0",
"C. c #F2C6A7",
"Z. c #F3C5B8",
"A. c #E8D4BB",
"S. c #88AACD",
"D. c #84AED2",
"F. c #84B8D9",
"G. c #95B6D5",
"H. c #95B9D6",
"J. c #F1BEC6",
"K. c #8BCEC1",
"L. c #99D3C9",
"P. c #8AC9DB",
"I. c #9BC7DA",
"U. c #9DD2DF",
"Y. c #B4C5CB",
"T. c #A5D8C7",
"R. c #B4DBC7",
"E. c #A2C2DB",
"W. c #AAC4DC",
"Q. c #AFC8DF",
"!. c #B6C8DD",
"~. c #BBD3DB",
"^. c #A4D1D2",
"/. c #94CAE0",
"(. c #9BD3E1",
"). c #ACCEE2",
"_. c #A6CBE1",
"`. c #BCCDE0",
"'. c #AAD9E5",
"]. c #A6D4E3",
"[. c #B4D2E4",
"{. c #BCD4E3",
"}. c #B9DAE7",
"|. c #D0D6D3",
" X c #EDC6CA",
".X c #F2C8C4",
"XX c #F2C8C9",
"oX c #F3D3CA",
"OX c #F2CDD3",
"+X c #EEDADE",
"@X c #F2D1D5",
"#X c #F2D7DB",
"$X c #C1D5E5",
"%X c #CBDAE5",
"&X c #C3DBE8",
"*X c #C8DAE6",
"=X c #D5DEE8",
"-X c #D5DEE7",
";X c #F2DDE1",
":X c #C8E2EA",
">X c #D6E4E9",
",X c #DDE4EB",
"<X c #E6EAEE",
"1X c #E9EBEE",
"2X c #E5E6E9",
"3X c #F2ECEC",
"4X c #F2E4E5",
"5X c #EDEEF0",
"6X c #F2EFF0",
"7X c #EFF0F1",
"8X c #FFFFFF",
/* pixels */
"8X8X8X8X8X8X8X8X8X8X8X8X8X8X8X8X8X3X3X3X8X8X8X8X8X8X8X8X8X8X8X8X",
"8X8X8X8X8X8X8X8X8X8X8X8X8X8X8X8X8X8X3X;X4X8X8X8X8X8X8X8X8X8X8X8X",
"8X8X8X8X8X8X8X8X8X8X8X<X1X,X,X2X1X8X4XOXOX4X8X6X8X8X8X8X8X8X8X8X",
"8X8X8X8X8X8X8X8X8X8X<XW.G.S.=.S.!.1X4XoXJ. X6X6X8X8X8X8X8X8X8X8X",
"8X8X8X8X8X8X8X8X8X%X_.-.*._ ( ) =.E.|..Xs.a.#X6X6X6X8X8X8X8X8X8X",
"8X8X8X8X8X8X8X8X,XH.#.&.[ [ [ ) ! ` L.A.Z.i.d.6X6X6X8X8X8X8X8X8X",
"8X8X8X8X8X8X8X5XH.;.' ;.-.P.:.;.&.#.&.v.Z.u.y.+X6X;X6X8X8X8X8X8X",
"8X8X8X8X8X8X8X$XD.-.*.F.U.L.L.K.;.%.X.] V.p.y.J.6X@X6X8X8X8X8X8X",
"8X8X8X8X8X8X<XG./.S.-.].R.l.j.j.h. .%.O.k.C.i.a.3XXX4X6X8X8X8X8X",
"8X8X8X8X8X7X%XI.E.D.P.T.j.G F G I z...+./ V.u.a.#XXX#X6X8X8X8X8X",
"8X8X8X8X8X7X`.{.G.F.L.l.h 1 4 2 w G g.@.` N.p.i.OX.XOX6X8X8X8X8X",
"8X8X8X8X8X5X`.%XD.P.x.I 2 , < < 4 0 T ` @.I C.i.OX.XJ.3X8X8X8X8X",
"8X8X8X8X7X,X=X`.F.P.b.h , , 2 2 2 3 G } o.U M.i.Z..Xd.6X8X8X8X8X",
"8X8X8X8X8X,X<XW.P.L.I , , 2 3 3 3 3 q g.o.U M.s.Z.s.d.3X8X8X8X8X",
"8X8X8X8X7X<X5XE.I.x.E , i 4 9 9 9 w J A ^ R 7.Z.p.s.d.3X8X8X8X8X",
"8X8X8X8X8X5X5XW.P.B.u . i 3 0 w 9 9 F A ^ I 7.i.u.u.J.6X8X8X8X8X",
"8X8X8X8X8X8X6XE.].B.y . g w 7 q 9 w D } { E 7.y.9.w..X3X8X8X8X8X",
"8X8X8X8X8X8X5XE.'.B., . g w 7 7 0 7 C } Z W u.y.N 9.OX3X8X8X8X8X",
"8X8X8X8X8X8X5X_.].c.y + g h 7 6 6 V Z S H W q.y.n 8.+X8X8X8X8X8X",
"8X8X8X8X8X8X6X).(.c.s + i g q D V C Z C K M.9.8.n e.1X8X8X8X8X8X",
"8X8X8X8X8X8X8X{.'.T.B   p L P 8 6 V D G m.w.0.N l d.6X8X8X8X8X8X",
"8X8X8X8X8X8X7X%X].T.Y O # b M h 8 F h W 7.8.2.f z @X6X8X8X8X8X8X",
"8X8X8X8X8X8X8X>X).U.k.$ o p N b L L b m.9.3.c f e.4X8X8X8X8X8X8X",
"8X8X8X8X8X8X8X<X).'.T.v X + l 5.6.6.5.5.1.3.u j  X7X8X8X8X8X8X8X",
"8X8X8X8X8X8X8X5X{.).^.n.; X @ z x z 3.z x a d r.1X8X8X8X8X8X8X8X",
"8X8X8X8X8X8X8X8X-X).'.R.4.= X = - - : ; p d >.|.8X8X8X8X8X8X8X8X",
"8X8X8X8X8X8X8X8X1X{.}.~.|.<.= % % & @ $ t >.~.2X8X8X8X8X8X8X8X8X",
"8X8X8X8X8X8X8X8X8X>X}.}.:X|.t.3.Q Q * 4.,.Y.&X<X8X8X8X8X8X8X8X8X",
"8X8X8X8X8X8X8X8X8X1X%X$X&X:X>X|.r.t.r.Y.'.}.:X5X8X8X8X8X8X8X8X8X",
"8X8X8X8X8X8X8X8X8X8X1X%X*X%X:X*X|.{.~.}.}.{.=X5X8X8X8X8X8X8X8X8X",
"8X8X8X8X8X8X8X8X8X8X8X2X,X%X&X&X&X[.[.[.&X-X2X7X8X8X8X8X8X8X8X8X",
"8X8X8X8X8X8X8X8X8X8X8X8X7X>X{.`.`.W.Q.!.%X<X8X8X8X8X8X8X8X8X8X8X"
};
