/* XPM */
static char *ground[] = {
/* columns rows colors chars-per-pixel */
"32 32 26 1 ",
"  c #FFFFFF",
". c #FFFFFF",
"X c #FFFFFF",
"o c #FFFFFF",
"O c #FFFFFF",
"+ c #FFFFFF",
"@ c #FFFFFF",
"# c #FFFFFF",
"$ c #FFFFFF",
"% c #FFFFFF",
"& c #FFFFFF",
"* c #FFFFFF",
"= c #FFFFFF",
"- c #FFFFFF",
"; c #FFFFFF",
": c #FFFFFF",
"> c #FFFFFF",
", c #FFFFFF",
"< c #FFFFFF",
"1 c #FFFFFF",
"2 c #FFFFFF",
"3 c #FFFFFF",
"4 c #FFFFFF",
"5 c #FFFFFF",
"6 c #FFFFFF",
"7 c #FFFFFF",
/* pixels */
". 57@X:7; $74..77. 47$ -7:.+75 .",
" .57+ :7- $74 .77. 47$.:7:.@75  ",
"55+o,5$o&5,O+54OO45+X:5-o$5,oO55",
"77o 27$ &7<.O76..67O.<7&.$72.o77",
"++<2%@-2-@%2,+@22@+,2%@*1-@$2,+@",
". 57+X:7-.$74..77X.47$.:7,.+75. ",
"::&&;:;%&:-&%::&%::%%-:&%&:;$&,,",
"77o.17$.&7<.O76.X67O ,7-.$72.X77",
"---&-:&--;--&-;&;--&----&&--&&;-",
"  57@.,7;.@74..77X.47@.-7,X@75 X",
"@@,<%$-<-@&<:@@<<$@:<&$&<-$%<,@$",
"77X 17$.-7<.O76 .67+ <7;.&72XO77",
"44++,4%+*4:++42++24+O:4*O&4,O+44",
". 57@.:7;.@74..77o.47@.;7: +75..",
"..46@.:6-.$62.X66OX26@X-6;.+64..",
"77X.17$.&7<XO76..67O ,7& %72 +77",
"77o.17% &7,.o76 .67+.<7& $72.o77",
"..46$.:6;.@62.X66X.26$.-6:.+64..",
"  57@.,7-.@74..77o.47@.;7: $75 .",
"44+O:4%O&4:O+42OO24+O:4&O&4,++44",
"77X.17$ -7,.O76.X67O.,7&.%71 X77",
"@@,<%@-,-@&<:$@<<$@:<%@*<-$%<:@@",
". 57+.:7- $74 .77..47@ ;7,.+75 X",
"--&&--&&---&&;;&-;;&-&-&&*:*&*;;",
"77X 17$.&7, O76. 67+.<7&.&71 o77",
"::$%-:&$&,-%%::$$::%&-:&$&::&%:,",
"  57@.:7;.$74 .77. 47$ -7:.+75 .",
"++,2$+-1-+%1,+@12+@,2%@-1;+$2,@@",
"77o.27%.-7<.O76..67+X<7&.&72.o77",
"55@O15&O;5<O@53@+56@+,5;+;62$$65",
"@@67<$172%,75$*77&%67:&273=>76;-",
"O@67:#17,$-75%@77@@57,&173=<76*&"
};
