/* XPM */
static char *heart[] = {
/* columns rows colors chars-per-pixel */
"32 32 130 2 ",
"   c #97021D",
".  c #98021D",
"X  c #A1011E",
"o  c #A8011F",
"O  c #8E0F26",
"+  c #9D0A25",
"@  c #9B1029",
"#  c #9D1630",
"$  c #AD0221",
"%  c #A10B26",
"&  c #B50122",
"*  c #BC0123",
"=  c #B20827",
"-  c #B40B2A",
";  c #A3132D",
":  c #A41833",
">  c #AA1B36",
",  c #B21D39",
"<  c #9A2238",
"1  c #AB243D",
"2  c #B5253F",
"3  c #C20126",
"4  c #C50229",
"5  c #CB032B",
"6  c #C10D2D",
"7  c #D2032D",
"8  c #D70530",
"9  c #DC0533",
"0  c #DB0A36",
"q  c #D11136",
"w  c #D8163D",
"e  c #E00736",
"r  c #E00836",
"t  c #E40C3B",
"y  c #E80E3F",
"u  c #E6103F",
"i  c #B42741",
"p  c #AB344A",
"a  c #AB3B50",
"s  c #D91D41",
"d  c #EA0F40",
"f  c #EB1544",
"g  c #E31B46",
"h  c #EF1748",
"j  c #EC1D4B",
"k  c #F31D4E",
"l  c #C12E4B",
"z  c #C1304C",
"x  c #DE2E52",
"c  c #C93753",
"v  c #D43754",
"b  c #DB3857",
"n  c #DD3858",
"m  c #E92A52",
"M  c #F52252",
"N  c #F82354",
"B  c #F72857",
"V  c #FA2758",
"C  c #F52D5A",
"Z  c #FA2C5C",
"A  c #ED355C",
"S  c #EE395F",
"D  c #F0325B",
"F  c #FC305F",
"G  c #FD3563",
"H  c #F73964",
"J  c #FD3966",
"K  c #FE3B68",
"L  c #9D4152",
"P  c #C24E64",
"I  c #D84A65",
"U  c #DF536D",
"Y  c #ED4567",
"T  c #EB4F6E",
"R  c #F34269",
"E  c #FA426C",
"W  c #E55E78",
"Q  c #F25275",
"!  c #C56173",
"~  c #C76F7F",
"^  c #D9657B",
"/  c #E4657D",
"(  c #E8607A",
")  c #F2607E",
"_  c #AD7982",
"`  c #BB7D89",
"'  c #D76C82",
"]  c #C97384",
"[  c #CA7E8C",
"{  c #EF6581",
"}  c #BE8993",
"|  c #B9969D",
" . c #B9999F",
".. c #BE9CA2",
"X. c #BFAEB1",
"o. c #CE8593",
"O. c #D18C99",
"+. c #EF8399",
"@. c #C39CA3",
"#. c #D49EA9",
"$. c #F895AA",
"%. c #F499AD",
"&. c #C1A2A8",
"*. c #D7ABB3",
"=. c #D9ADB5",
"-. c #C4B0B4",
";. c #CFBCBF",
":. c #DFB6BD",
">. c #E1B7BE",
",. c #EAB0BB",
"<. c #CFBFC2",
"1. c #DCB9C0",
"2. c #E2BBC2",
"3. c #CCC2C4",
"4. c #D4D3D3",
"5. c #E5C3CA",
"6. c #E7CCD1",
"7. c #E8CDD2",
"8. c #E1DDDD",
"9. c #E6E4E4",
"0. c #EFE2E5",
"q. c #FFFFFF",
"w. c #F0E2E5",
"e. c #F6ECEE",
"r. c #FFFFFF",
"t. c #F8EEF0",
"y. c #FFFFFF",
"u. c #FAF3F5",
"i. c #FFFFFF",
"p. c #FFFFFF",
/* pixels */
"q.q.i.p.p.r.q.i.p.p.r.q.i.p.p.r.q.y.p.p.q.q.i.p.p.r.q.i.p.p.q.q.",
"q.q.i.p.p.r.r.y.p.p.q.q.i.p.p.r.q.i.p.p.r.r.p.p.p.q.q.p.p.p.q.q.",
"i.i.y.y.i.i.y.y.i.i.y.i.i.y.y.i.i.y.i.y.i.y.i.i.y.i.i.y.i.y.y.i.",
"p.p.i.q.r.p.p.y.q.y.p.p.y.r.r.p.p.r.r.y.p.p.r.q.r.p.p.y.r.y.p.p.",
"p.p.i.r.r.p.p.y.r.y.p.p.y.r.y.p.p.y.r.y.p.p.y.q.y.p.p.r.r.r.p.p.",
"r.q.i.p.p.r.r.i.p.p.q.q.i.p.p.q.r.i.p.p.q.r.i.p.p.r.r.i.p.p.r.r.",
"r.q.y.p.p.r.r.i.p.>.o.O.6.p.p.q.r.p.p.6.O.o.>.p.i.r.r.p.p.p.q.q.",
"i.y.i.y.y.i.y.1.i & * * & P 0.i.y.0.P = * * & 2 5.y.i.y.y.i.y.i.",
"p.p.i.q.r.p.>.= * I / / b 5 z t.u.z 5 w s q ^ c = 5.p.y.q.y.p.p.",
"p.p.y.r.y.u., 6 U m ( ) R g q ^ ' q m S S +.p.,.& i i.y.r.r.p.p.",
"q.r.i.p.p.#.& v ( Y D D G E k g g k H H Q Q %.x 4 & =.p.p.p.y.q.",
"q.r.i.p.p.~ * b T R V J E J Z N M V G K $.E f e 5 * [ i.p.i.q.q.",
"y.i.y.i.y.! * s A N E G J J G Z Z F G G F Z k t 5 * ] y.y.i.y.i.",
"p.p.y.r.r.] * 7 f C G J J J J J J J J J G Z k y 7 & o.y.y.y.p.p.",
"p.p.y.r.r.:.& 5 t M F G J J K K J J J J G Z k t 5 & :.r.q.y.p.p.",
"r.r.i.p.p.4.> * 8 f M F G J J K J J J G Z M f 8 * 1 9.i.p.p.r.r.",
"r.r.i.p.p.q.` $ 4 0 f M B F G G J G Z B M f 0 4 $ } q.i.p.p.r.q.",
"i.y.i.y.y.y.8.p & 5 0 d h k k M M M k h y 0 5 & a 9.y.i.y.y.y.i.",
"p.p.y.q.r.p.p.<.; & 5 8 0 t d d d d t 9 7 4 - p <.p.p.r.r.r.p.p.",
"p.p.y.r.y.p.p.q.@.% & 4 5 8 9 9 e 9 8 5 4 & 1 ..q.p.p.i.r.i.p.p.",
"r.q.i.p.p.q.q.i.y.@.+ $ * 5 5 7 7 7 4 * $ : @.y.p.q.q.p.p.p.q.q.",
"r.q.i.p.p.r.q.i.p.q.| @ o & 4 4 4 * & $ # ..q.p.p.q.q.p.p.p.q.q.",
"i.i.y.y.y.i.i.i.y.i.q.-.< X $ & & $ . < -.q.y.y.y.y.i.y.i.y.i.i.",
"p.p.y.r.r.p.p.y.q.r.p.y.3.L   . $   L <.y.p.y.q.y.p.p.r.q.y.p.p.",
"p.p.y.r.y.p.p.y.y.r.p.p.r.4._ O O _ 4.r.p.p.y.y.y.p.p.r.r.y.p.p.",
"r.r.i.p.p.r.r.i.p.p.r.q.i.p.q.X.X.9.p.p.r.q.i.p.p.q.r.p.p.p.r.r.",
"q.r.y.p.p.q.r.i.p.p.r.r.p.p.p.q.q.y.p.p.q.q.i.p.p.q.q.p.p.p.q.q.",
"i.i.y.y.y.i.i.y.y.y.i.i.y.y.y.i.p.y.y.y.i.i.y.y.y.i.y.y.y.y.i.i.",
"p.p.y.r.r.p.p.y.r.r.p.p.y.r.r.p.p.y.r.r.p.p.i.q.y.p.p.y.r.r.p.p.",
"p.p.y.y.y.p.p.y.r.y.p.p.y.r.y.p.p.y.r.y.p.p.y.r.y.p.p.y.r.y.p.p.",
"r.r.y.p.p.q.r.y.p.p.r.r.i.p.p.q.q.p.p.p.q.q.i.p.p.q.q.i.p.i.r.r.",
"q.q.i.p.p.q.r.p.p.p.q.r.i.p.p.q.q.i.p.p.r.q.p.p.p.q.q.p.p.p.q.q."
};
