/* XPM */
static char *player[] = {
/* columns rows colors chars-per-pixel */
"32 32 161 2 ",
"   c #7B3632",
".  c #394D60",
"X  c #4D575D",
"o  c #675E56",
"O  c #5E6B73",
"+  c #746E61",
"@  c #66747D",
"#  c #AB161F",
"$  c #853B3A",
"%  c #B7212A",
"&  c #C50D1A",
"*  c #D70413",
"=  c #E30011",
"-  c #C11E28",
";  c #A96628",
":  c #E57F07",
">  c #954240",
",  c #9A5F5C",
"<  c #877766",
"1  c #817768",
"2  c #9A706D",
"3  c #807A76",
"4  c #A97F7F",
"5  c #F18403",
"6  c #F39525",
"7  c #F49D34",
"8  c #978679",
"9  c #CC9D62",
"0  c #CEA36C",
"q  c #DEAF6A",
"w  c #F7B463",
"e  c #5B7483",
"r  c #487595",
"t  c #507690",
"y  c #627B8A",
"u  c #727B82",
"i  c #768D99",
"p  c #5589AE",
"a  c #4480B0",
"s  c #4987B7",
"d  c #6D93A8",
"f  c #7A9FB1",
"g  c #448AC2",
"h  c #55AEDC",
"j  c #63ABCB",
"k  c #77B5DA",
"l  c #66C1E7",
"z  c #7EC4E3",
"x  c #84888D",
"c  c #85958F",
"v  c #9B9086",
"b  c #8B8F90",
"n  c #879C9D",
"m  c #97999B",
"M  c #979996",
"N  c #B88A86",
"B  c #AD928F",
"V  c #AA9E9A",
"C  c #B49793",
"Z  c #B69D98",
"A  c #BA9D98",
"S  c #BEB08F",
"D  c #B4A097",
"F  c #BFAF9D",
"G  c #B2AA98",
"H  c #8A99A5",
"J  c #89A5AC",
"K  c #9AA6A7",
"L  c #88AEBD",
"P  c #9EAFBB",
"I  c #A7A7A8",
"U  c #B1A4A0",
"Y  c #B6A9A5",
"T  c #BAAEAB",
"R  c #B6ACA9",
"E  c #BBB1AE",
"W  c #A1B9B9",
"Q  c #BEB5B3",
"!  c #BFB8B6",
"~  c #B2B4B2",
"^  c #C98988",
"/  c #CF9E9C",
"(  c #C1A382",
")  c #D0AD81",
"_  c #D0AE8B",
"`  c #CBB18E",
"'  c #CFAB91",
"]  c #C2A5A1",
"[  c #C4ABA6",
"{  c #C3ADA9",
"}  c #CAACAE",
"|  c #D7AEA9",
" . c #D6A9A5",
".. c #CDB1AD",
"X. c #C5B1AC",
"o. c #D6B3AE",
"O. c #C3B6B1",
"+. c #CFB6B1",
"@. c #C4B8B4",
"#. c #CDB9B3",
"$. c #C2BDBB",
"%. c #CCBCBA",
"&. c #D2BCB5",
"*. c #E8B4AF",
"=. c #E6B5B0",
"-. c #E4B9B4",
";. c #F2BBB6",
":. c #FAC889",
">. c #FBCE97",
",. c #F0CA92",
"<. c #D2C1AD",
"1. c #CAC1BF",
"2. c #FCD6A7",
"3. c #E0C2BC",
"4. c #F6C3BE",
"5. c #FDE3BF",
"6. c #A2BFC3",
"7. c #9DC5D1",
"8. c #95C4D8",
"9. c #AAC9CC",
"0. c #BDC1C1",
"q. c #BEC4CA",
"w. c #97D3E6",
"e. c #B6DDE3",
"r. c #B3DFE8",
"t. c #B9E1E6",
"y. c #BBE3E9",
"u. c #CCC5C3",
"i. c #CCC8C7",
"p. c #CDCAC9",
"a. c #DDC6C0",
"s. c #DACCCA",
"d. c #DDDCDB",
"f. c #D4D2D1",
"g. c #EDC9C3",
"h. c #E2CEC8",
"j. c #E8CEC8",
"k. c #E0CBC5",
"l. c #FFFFFF",
"z. c #F9CFC9",
"x. c #F9CBC6",
"c. c #EAD5CE",
"v. c #FAD2CC",
"b. c #F0D1CB",
"n. c #EDD7D1",
"m. c #E0DFDE",
"M. c #F9D7D1",
"N. c #FBD9D3",
"B. c #F5DFD9",
"V. c #F8DFD8",
"C. c #F0D9D3",
"Z. c #FEE6C6",
"A. c #F4E2CA",
"S. c #FEECD2",
"D. c #FBE4DD",
"F. c #E4E4E3",
"G. c gray93",
"H. c #FDE7E0",
"J. c #F0EFEF",
"K. c #F0F0EF",
"L. c #FFFFFF",
/* pixels */
"L.L.L.L.L.L.L.L.L.L.L.L.L.L.J.J.L.L.L.L.L.L.L.L.L.L.L.L.L.L.L.L.",
"L.L.L.L.L.L.L.L.L.L.L.L.L.J.Y $.L.L.L.L.L.L.G.L.L.L.L.L.L.L.L.L.",
"L.L.L.L.L.L.L.L.L.L.L.L.L.Q D.$.L.L.L.L.G.E Y L.L.L.L.L.L.L.L.L.",
"L.L.L.L.L.L.L.L.L.L.L.L.L.O.H.$.L.L.L.K.R D.O.L.L.L.L.L.L.L.L.L.",
"L.L.L.L.L.L.L.L.L.L.L.L.1.k.j.! L.L.L.E c.c.p.L.L.L.L.L.L.L.L.L.",
"L.L.L.L.L.L.L.L.L.L.L.L.Q D 3.d.L.L.i.[ -.E L.L.L.L.L.L.L.L.L.L.",
"L.L.L.L.L.L.L.L.L.L.L.L.{ $ } L.L.L.Y , +.m.L.L.L.L.L.L.L.L.L.L.",
"L.L.L.L.L.L.L.L.L.L.L.F.[ > @.L.L.m.2 N $.L.L.L.L.L.L.L.L.L.L.L.",
"L.L.L.L.L.L.L.L.L.L.L.F.A N V @.@.G C T L.L.L.L.L.L.L.L.L.L.L.L.",
"L.L.L.L.L.L.L.L.L.L.L.$.&.B.D.H.H.H.D.R J.L.L.L.L.L.L.L.L.L.L.L.",
"L.L.L.L.L.L.L.L.L.L.! n.H.H.H.H.H.H.H.D.E L.L.L.L.L.L.L.L.L.L.L.",
"L.L.L.L.L.L.L.L.L.m.&.D.H.H.H.H.H.H.H.D.&.F.L.L.L.L.L.L.L.L.L.L.",
"L.L.L.L.L.L.L.L.L.T D.H.H.D.g.{ E ~ ~ Q s.E L.L.L.L.L.L.L.L.L.L.",
"L.L.L.L.L.L.L.L.L.{ M.N.] I 6.e.7.7.n L J b L.L.L.L.L.L.L.L.L.L.",
"L.L.L.L.L.L.L.L.L.{ | K e.e.w.d r @ 1 M y O J.L.L.L.L.L.L.L.L.L.",
"L.L.L.L.L.L.L.L.L.B I y.w.z t X + o M.< v n 0.L.L.L.L.L.L.L.L.L.",
"L.L.L.L.L.L.L.L.L.J y.l j c _ Z.A.F S.<.S.G 9.d.L.L.L.L.L.L.L.L.",
"L.L.L.L.L.L.L.L.0.t.r.h S w 6 2.S.S.  A.:.: W P L.L.L.L.L.L.L.L.",
"L.L.L.L.L.L.L.L.i 8.k s ,.7 5 >.S.A.; S.S.9 f H L.L.L.L.L.L.L.L.",
"L.L.L.L.L.L.L.L.@ d p s q :.2.Z.S.A.S S.U e . q.L.L.L.L.L.L.L.L.",
"L.L.L.L.L.L.L.L.m u t a 8 0 0 ) _ _ ` + b I F.L.L.L.L.L.L.L.L.L.",
"L.L.L.L.L.L.L.L.G.F.m { D.M.z.x.| b.3.D.@.L.L.L.L.L.L.L.L.L.L.L.",
"L.L.L.L.L.L.L.L.L.L.$.D.C.V.D./ * & * Z H.u.L.L.L.L.L.L.L.L.L.L.",
"L.L.L.L.L.L.L.L.L.L...D.D...H. .= = & h.o.1.L.L.L.L.L.L.L.L.L.L.",
"L.L.L.L.L.L.L.L.L.L.1.*.=.Z H.H.^ - ^ H.#.m.L.L.L.L.L.L.L.L.L.L.",
"L.L.L.L.L.L.L.L.L.L.L.T N &.H.H.H.D.D.H.D.u.L.L.L.L.L.L.L.L.L.L.",
"L.L.L.L.L.L.L.L.L.L.L.p.;.D.H.H.H.H.H.H.H.u.L.L.L.L.L.L.L.L.L.L.",
"L.L.L.L.L.L.L.L.L.L.L.L.Y 4.z.v.z.g.v.N.M.O.L.L.L.L.L.L.L.L.L.L.",
"L.L.L.L.L.L.L.L.L.L.L.L.} % C %.p.f.u.%.4 # p.L.L.L.L.L.L.L.L.L.",
"L.L.L.L.L.L.L.L.L.L.L.L.s.%.L.L.L.L.L.L.L.G.L.L.L.L.L.L.L.L.L.L.",
"L.L.L.L.L.L.L.L.L.L.L.L.L.L.L.L.L.L.L.L.L.L.L.L.L.L.L.L.L.L.L.L.",
"L.L.L.L.L.L.L.L.L.L.L.L.L.L.L.L.L.L.L.L.L.L.L.L.L.L.L.L.L.L.L.L."
};
