/* XPM */
static char *tree_minus[] = {
/* columns rows colors chars-per-pixel */
"23 32 152 2 ",
"   c #87583B",
".  c #895A3D",
"X  c #8E5D3F",
"o  c #945A34",
"O  c #956039",
"+  c #91633D",
"@  c #A36137",
"#  c #A36237",
"$  c #A1633B",
"%  c #AC6739",
"&  c #AD683A",
"*  c #AE693B",
"=  c #B36B3B",
"-  c #B36C3D",
";  c #B76E3E",
":  c #B86F3E",
">  c #B96F3F",
",  c #BA703F",
"<  c #BB703F",
"1  c #8B5E42",
"2  c #8A744E",
"3  c #A16642",
"4  c #A16841",
"5  c #AD714A",
"6  c #BF7341",
"7  c #5D9F28",
"8  c #598035",
"9  c #5E9130",
"0  c #609A2E",
"q  c #609C2D",
"w  c #679D33",
"e  c #699D37",
"r  c #6A9E36",
"t  c #6A9F36",
"y  c #6B9F37",
"u  c #67A134",
"i  c #6CA137",
"p  c #6CA237",
"a  c #6DA237",
"s  c #6DA337",
"d  c #6FAD36",
"f  c #6DA338",
"g  c #6DA438",
"h  c #6FA638",
"j  c #6FA639",
"k  c #71AF37",
"l  c #71A33F",
"z  c #72A73D",
"x  c #70A839",
"c  c #71A839",
"v  c #71A939",
"b  c #72AA3A",
"n  c #72AB3A",
"m  c #73AC3A",
"M  c #74AD3A",
"N  c #74AD3B",
"B  c #75AE3B",
"V  c #75AF3B",
"C  c #74A93F",
"Z  c #72B237",
"A  c #72B337",
"S  c #76B03B",
"D  c #76B03C",
"F  c #76B13C",
"G  c #77B13C",
"H  c #77B23C",
"J  c #78B23C",
"K  c #78B33C",
"L  c #78B33D",
"P  c #79B33E",
"I  c #7AB53D",
"U  c #7AB63D",
"Y  c #7BB73D",
"T  c #7BB73E",
"R  c #7BB83D",
"E  c #7BB93D",
"W  c #7BBA3D",
"Q  c #7BB83E",
"!  c #7CB83E",
"~  c #7CB93E",
"^  c #7CBA3E",
"/  c #7CBB3E",
"(  c #7DBB3E",
")  c #7DBA3F",
"_  c #7DBB3F",
"`  c #7EBB3F",
"'  c #7EBC3F",
"]  c #709D48",
"[  c #6EA343",
"{  c #75A941",
"}  c #75A049",
"|  c #76A349",
" . c #79A54E",
".. c #7CA751",
"X. c #7FA75C",
"o. c #8B895D",
"O. c #82A95B",
"+. c #A2826E",
"@. c #A98975",
"#. c #85A863",
"$. c #86AA62",
"%. c #86AB62",
"&. c #87AB62",
"*. c #87A86B",
"=. c #91B46F",
"-. c #88A570",
";. c #92AB79",
":. c #8EB171",
">. c #91B476",
",. c #99B087",
"<. c #9AB485",
"1. c #9EB687",
"2. c #A9B99A",
"3. c #ACBD9B",
"4. c #AEBF9D",
"5. c #BDB4AF",
"6. c #D09F80",
"7. c #C3B9B3",
"8. c #ACC099",
"9. c #AFC49F",
"0. c #B1C1A1",
"q. c #BAC7AD",
"w. c #C0CCB4",
"e. c #C5CCBF",
"r. c #E3CDBF",
"t. c #E5CEBF",
"y. c #CCC7C4",
"u. c #CEC8C4",
"i. c #C9D2C1",
"p. c #D3DACF",
"a. c #DAD6D4",
"s. c #D8DED2",
"d. c #DFDAD6",
"f. c #D8DDD4",
"g. c #DDE1D9",
"h. c #DFE4DB",
"j. c #EAE2DD",
"k. c #E4E7E1",
"l. c #E6E7E6",
"z. c #E8ECE6",
"x. c #EBECEA",
"c. c #EDEEEC",
"v. c #EFEFEF",
"b. c #F2F2F2",
"n. c #F3F4F3",
"m. c #F5F5F5",
"M. c #F6F6F6",
"N. c #FAFAFA",
"B. c #FCFCFC",
"V. c #FEFDFC",
"C. c #FEFEFE",
"Z. c white",
/* pixels */
"Z.Z.Z.Z.Z.Z.Z.Z.Z.Z.Z.Z.Z.Z.Z.Z.Z.Z.Z.Z.Z.Z.Z.",
"Z.Z.Z.Z.Z.Z.Z.Z.Z.Z.Z.Z.Z.Z.Z.Z.Z.Z.Z.Z.Z.Z.Z.",
"Z.Z.Z.Z.Z.Z.Z.Z.Z.Z.Z.Z.Z.Z.Z.Z.Z.Z.Z.Z.Z.Z.Z.",
"Z.Z.Z.Z.Z.Z.Z.Z.Z.Z.Z.Z.Z.Z.Z.Z.Z.Z.Z.Z.Z.Z.Z.",
"Z.Z.Z.Z.Z.Z.Z.Z.Z.Z.Z.Z.Z.Z.Z.Z.Z.Z.Z.Z.Z.Z.Z.",
"Z.Z.Z.Z.Z.Z.Z.Z.b.e.%.&.O.0.C.Z.Z.Z.Z.Z.Z.Z.Z.",
"Z.Z.Z.Z.Z.Z.Z.x...i ^ ' ' G | k.Z.Z.Z.Z.Z.Z.Z.",
"Z.Z.Z.Z.Z.Z.s.} t Q ' K Y ' ' #.g.Z.Z.Z.Z.Z.Z.",
"Z.Z.Z.Z.Z.f.P ~ R m U S x p c m  .M.Z.Z.Z.Z.Z.",
"Z.Z.Z.Z.Z.1.h g n L ' ' ' ' F N b ;.Z.Z.Z.Z.Z.",
"Z.Z.Z.Z.c.l f ' ' ` ' ' G y U ' ^ V 3.Z.Z.Z.Z.",
"Z.Z.Z.Z.2.a ' ' B s H ' ' ' ! ' ' a $.Z.Z.Z.Z.",
"Z.Z.Z.B.C J ' ' H ' ' ' ' B v J ' K e v.Z.Z.Z.",
"Z.Z.Z.n.z v ' ' ' ' ' ' ' ' ' v U D ' 4.Z.Z.Z.",
"Z.Z.Z.i.b ' ' ' ' T ' ' ' ' ' ' ' j B q.Z.Z.Z.",
"Z.Z.Z.w.) ' _ ' M Q ' ' ' F R ' S ` ' 8.Z.Z.Z.",
"Z.Z.Z.N.] d S ' ' r ' ' ' w Z ' s ' { h.Z.Z.Z.",
"Z.Z.Z.Z.9.7 q ' ' N ` ' I 0 E f G W -.Z.Z.Z.Z.",
"Z.Z.Z.Z.Z.<.[ W ' k 9 =.8 A ( _ / u p.Z.Z.Z.Z.",
"Z.Z.Z.Z.Z.Z.z.>.:.2 + u.O o.,.X.*.l.Z.Z.Z.Z.Z.",
"Z.Z.Z.Z.Z.Z.Z.Z.Z.7.: * - d.Z.Z.Z.Z.Z.Z.Z.Z.Z.",
"Z.Z.Z.Z.Z.Z.Z.Z.Z.m.$ 6 5 N.Z.Z.Z.Z.Z.Z.Z.Z.Z.",
"Z.Z.Z.Z.Z.Z.Z.Z.Z.Z.1 , 4 +.Z.Z.Z.Z.Z.Z.Z.Z.Z.",
"Z.Z.Z.Z.Z.Z.Z.Z.Z.Z.  ; & y.Z.Z.Z.Z.Z.Z.Z.Z.Z.",
"Z.Z.Z.Z.Z.Z.Z.Z.Z.v.@ > o C.Z.Z.Z.Z.Z.Z.Z.Z.Z.",
"Z.Z.Z.Z.Z.Z.Z.Z.Z.5.= < # a.Z.Z.Z.Z.Z.Z.Z.Z.Z.",
"Z.Z.Z.Z.Z.Z.Z.Z.j.3 X % . @.Z.Z.Z.Z.Z.Z.Z.Z.Z.",
"Z.Z.Z.Z.Z.Z.Z.Z.Z.V.r.6.t.Z.Z.Z.Z.Z.Z.Z.Z.Z.Z.",
"Z.Z.Z.Z.Z.Z.Z.Z.Z.Z.Z.Z.Z.Z.Z.Z.Z.Z.Z.Z.Z.Z.Z.",
"Z.Z.Z.Z.Z.Z.Z.Z.Z.Z.Z.Z.Z.Z.Z.Z.Z.Z.Z.Z.Z.Z.Z.",
"Z.Z.Z.Z.Z.Z.Z.Z.Z.Z.Z.Z.Z.Z.Z.Z.Z.Z.Z.Z.Z.Z.Z.",
"Z.Z.Z.Z.Z.Z.Z.Z.Z.Z.Z.Z.Z.Z.Z.Z.Z.Z.Z.Z.Z.Z.Z."
};
