/* XPM */
static char *tree[] = {
/* columns rows colors chars-per-pixel */
"32 32 115 2 ",
"   c #AB6537",
".  c #A4643B",
"X  c #A8663B",
"o  c #B06738",
"O  c #B36B3C",
"+  c #976547",
"@  c #936A40",
"#  c #93664A",
"$  c #966A4F",
"%  c #8C754C",
"&  c #996F54",
"*  c #A66B44",
"=  c #A26D4B",
"-  c #AA6F4A",
";  c #AC724B",
":  c #B27146",
">  c #B6764B",
",  c #B47D5A",
"<  c #5F9D2B",
"1  c #618737",
"2  c #659434",
"3  c #66A031",
"4  c #6DA536",
"5  c #6EAB36",
"6  c #6EA439",
"7  c #6FAB38",
"8  c #71A63B",
"9  c #73AC3A",
"0  c #76B13B",
"q  c #79B53D",
"w  c #7DBB3F",
"e  c #74A446",
"r  c #76AC43",
"t  c #79AB46",
"y  c #77A748",
"u  c #7CB643",
"i  c #7EBA41",
"p  c #7DB04A",
"a  c #7EA753",
"s  c #7DAB51",
"d  c #8E8558",
"f  c #82AD57",
"g  c #82A35E",
"h  c #82AA5D",
"j  c #8F9A65",
"k  c #A6846D",
"l  c #A88874",
"z  c #89AF66",
"x  c #87AA68",
"c  c #89AD68",
"v  c #8CB067",
"b  c #8DB169",
"n  c #97A579",
"m  c #93B673",
"M  c #97BC71",
"N  c #98BA76",
"B  c #98B97B",
"V  c #9FC37B",
"C  c #98B482",
"Z  c #9FB688",
"A  c #B8A28F",
"S  c #A1BF83",
"D  c #A3BC8C",
"F  c #B7A490",
"G  c #BAA395",
"H  c #BFA999",
"J  c #A7BF94",
"K  c #A9BF93",
"L  c #CBAD9B",
"P  c #D5AD93",
"I  c #C5B2A6",
"U  c #CDBCB2",
"Y  c #A1C380",
"T  c #AAC293",
"R  c #AEC895",
"E  c #ACC29A",
"W  c #B1C99B",
"Q  c #B8CBA4",
"!  c #B8C6AA",
"~  c #B8D0A0",
"^  c #BCD0AA",
"/  c #BFCEB1",
"(  c #C0D7A9",
")  c #D3C1B3",
"_  c #C0D0B4",
"`  c #C6D2BB",
"'  c #C9D9BC",
"]  c #D6C9C1",
"[  c #DACDC5",
"{  c #CBD6C2",
"}  c #DED0C8",
"|  c #D5DECD",
" . c #DADED5",
".. c #DFDDD9",
"X. c #E3CEC0",
"o. c #E2D5CD",
"O. c #E5D8CF",
"+. c #E6DBD4",
"@. c #E3DDD9",
"#. c #D7E0CD",
"$. c #DBE2D5",
"%. c #DEE4D8",
"&. c #E3E7E0",
"*. c #E8E7E6",
"=. c #E7EBE3",
"-. c #E9EDE6",
";. c #ECEDEB",
":. c #F4ECE7",
">. c #F2EDEB",
",. c #EBF0E6",
"<. c #EEF1EC",
"1. c #F3F1EE",
"2. c #F4F5F3",
"3. c #F8FAF7",
"4. c #FFFFFF",
/* pixels */
"4.4.4.4.4.4.4.4.4.4.4.4.4.4.4.4.4.4.4.4.4.4.4.4.4.4.4.4.4.4.4.4.",
"4.4.4.4.4.4.4.4.4.4.4.4.4.4.4.4.4.4.4.4.4.4.4.4.4.4.4.4.4.4.4.4.",
"4.4.4.4.4.4.4.4.4.4.4.4.4.4.4.4.4.4.4.4.4.4.4.4.4.4.4.4.4.4.4.4.",
"4.4.4.4.4.4.4.4.4.4.4.4.4.4.4.4.4.4.4.4.4.4.4.4.4.4.4.4.4.4.4.4.",
"4.4.4.4.4.4.4.4.4.4.4.4.4.4.3.3.3.3.3.4.4.4.4.4.4.4.4.4.4.4.4.4.",
"4.4.4.4.4.4.4.4.4.4.4.1. .Q b v v b K | 3.4.4.4.4.4.4.4.4.4.4.4.",
"4.4.4.4.4.4.4.4.4.3...B e 8 w w i w u t m $.2.4.4.4.4.4.4.4.4.4.",
"4.4.4.4.4.4.4.4.=.Q a 6 9 w w q q q w w u z _ -.4.4.4.4.4.4.4.4.",
"4.4.4.4.4.4.3.$.V q q q 0 0 q q 9 8 8 8 9 9 r T 2.4.4.4.4.4.4.4.",
"4.4.4.4.4.4.<.K f 4 8 9 0 q w w w w w q 9 9 9 s D =.4.4.4.4.4.4.",
"4.4.4.4.4.3.#.f 4 9 w w w w w w w 0 8 9 w w w q p D $.4.4.4.4.4.",
"4.4.4.4.4.$.Z e 0 w w 0 5 5 w w w w w w q w w 0 8 h ' 4.4.4.4.4.",
"4.4.4.4.4.( r 0 q w w q w w w w w w q 9 9 0 w w 9 6 W 2.4.4.4.4.",
"4.4.4.4.3.~ 8 8 w w w w w w w w w w w w w 8 0 q q w N ` 3.4.4.4.",
"4.4.4.4. .S 9 w w w w w w w w w w w w w w w w q 8 9 N { 3.4.4.4.",
"4.4.4.3.| Y u w w w w q 0 q w f w w q q w w q q w w M ` 3.4.4.4.",
"4.4.4.4.4.^ e 7 7 q w w 9 8 w w w w 4 4 0 w 8 0 w 9 R -.4.4.4.4.",
"4.4.4.4.4.%.Z 6 < 5 w i q 9 q i w q 3 5 q 7 9 q u x { 4.4.4.4.4.",
"4.4.4.4.4.4.,.T h r i i q 8 2 h g 1 4 q i i i 0 s / <.4.4.4.4.4.",
"4.4.4.4.4.4.4.3.<.{ B m j % @ A A @ d n C c x E &.3.4.4.4.4.4.4.",
"4.4.4.4.4.4.4.4.4.3.3.3.@.H : : O > ) ;.3.3.3.3.4.4.4.4.4.4.4.4.",
"4.4.4.4.4.4.4.4.4.4.4.4.4.o.; O O , o.4.4.4.4.4.4.4.4.4.4.4.4.4.",
"4.4.4.4.4.4.4.4.4.4.4.4.4.@.& X O = k ] 4.4.4.4.4.4.4.4.4.4.4.4.",
"4.4.4.4.4.4.4.4.4.4.4.4.4.+.$   O : I -.4.4.4.4.4.4.4.4.4.4.4.4.",
"4.4.4.4.4.4.4.4.4.4.4.4.3.} - o   = +.4.4.4.4.4.4.4.4.4.4.4.4.4.",
"4.4.4.4.4.4.4.4.4.4.4.4.@.G : O o * U ;.4.4.4.4.4.4.4.4.4.4.4.4.",
"4.4.4.4.4.4.4.4.4.4.4.>.L = + * . # l [ 4.4.4.4.4.4.4.4.4.4.4.4.",
"4.4.4.4.4.4.4.4.4.4.4.4.3.>.X.P P X.>.4.4.4.4.4.4.4.4.4.4.4.4.4.",
"4.4.4.4.4.4.4.4.4.4.4.4.4.4.4.3.4.4.4.4.4.4.4.4.4.4.4.4.4.4.4.4.",
"4.4.4.4.4.4.4.4.4.4.4.4.4.4.4.4.4.4.4.4.4.4.4.4.4.4.4.4.4.4.4.4.",
"4.4.4.4.4.4.4.4.4.4.4.4.4.4.4.4.4.4.4.4.4.4.4.4.4.4.4.4.4.4.4.4.",
"4.4.4.4.4.4.4.4.4.4.4.4.4.4.4.4.4.4.4.4.4.4.4.4.4.4.4.4.4.4.4.4."
};
